<svg width="92" height="20" viewBox="0 0 92 20" fill="none" xmlns="http://www.w3.org/2000/svg">
<path d="M21.6812 0.0254472C22.8492 0.0254472 23.9236 0.0122659 24.9981 0.0439057C25.122 0.0478606 25.3065 0.282519 25.3474 0.440718C25.8602 2.40765 26.352 4.37987 26.8463 6.35076C27.3868 8.50094 27.9247 10.6511 28.4652 12.8013C28.4824 12.8699 28.5153 12.9345 28.5826 13.1111C28.9042 11.7466 29.2009 10.4916 29.4962 9.23657C30.1764 6.34417 30.8619 3.45308 31.529 0.556731C31.6213 0.157279 31.79 -0.0141005 32.2145 0.0109476C32.7669 0.045224 33.3233 0.0320406 33.8769 0.0149024C34.1881 0.00567416 34.3529 0.1085 34.428 0.427534C35.3192 4.23485 36.2209 8.04084 37.1213 11.8455C37.2123 12.2318 37.3099 12.6154 37.4826 13.0056C37.7515 11.9365 38.0231 10.8673 38.2907 9.79816C39.0645 6.7067 39.8424 3.61655 40.6043 0.522453C40.6979 0.14014 40.8693 -0.000918576 41.2675 0.009628C42.2483 0.0359944 43.2304 0.0188572 44.2851 0.0188572C44.2455 0.248245 44.2337 0.409077 44.1902 0.563321C42.5647 6.24792 40.9352 11.9325 39.3071 17.6158C39.2992 17.6448 39.286 17.6738 39.2781 17.7028C38.8813 18.9961 38.8813 19.0027 37.5472 18.9935C37.0739 18.9908 36.4688 19.12 36.1629 18.8814C35.8584 18.6454 35.8347 18.0284 35.7213 17.5697C34.8525 14.0577 33.993 10.543 33.1295 7.02969C33.0939 6.88204 33.0504 6.73703 32.9792 6.47468C32.647 7.8431 32.3411 9.09682 32.0366 10.3505C31.3748 13.0729 30.7051 15.7939 30.0578 18.5202C29.9681 18.8972 29.7954 19.0172 29.4237 19.0027C28.808 18.9776 28.191 18.9803 27.5754 19.0014C27.2207 19.0132 27.0573 18.8775 26.9597 18.536C26.1938 15.84 25.4094 13.1507 24.6355 10.4573C23.6876 7.15757 22.7464 3.85517 21.8038 0.554096C21.7616 0.410399 21.7352 0.262745 21.6812 0.0254472Z" fill="#A9A9A9"/>
<path d="M13.7422 9.56083C13.7422 12.5033 13.7422 15.4458 13.7422 18.3883C13.7422 18.9987 13.7369 19.0027 13.1213 19.0053C12.3355 19.0079 11.5498 18.9868 10.7641 19.0132C10.3225 19.0277 10.1748 18.8761 10.1774 18.4305C10.1946 16.1814 10.1854 13.9324 10.1854 11.6833C10.1854 11.0598 10.1827 11.0558 9.57893 11.0558C7.76096 11.0545 5.94299 11.0677 4.12503 11.0466C3.67284 11.0413 3.54892 11.1956 3.55288 11.6319C3.57133 13.881 3.5621 16.13 3.56079 18.3791C3.56079 18.9934 3.54892 19.004 2.94513 19.0053C2.12909 19.0079 1.31173 18.9961 0.495688 19.0093C0.150288 19.0145 0 18.9091 0 18.5347C0.00790993 12.5112 0.00790921 6.48782 0.0013176 0.464412C0.0013176 0.125604 0.117331 0.0016853 0.457458 0.00695859C1.31964 0.0227785 2.18314 0.0306858 3.04532 0.00431937C3.46455 -0.00886385 3.57002 0.1612 3.56738 0.548787C3.55551 2.72138 3.56079 4.89266 3.5621 7.06525C3.5621 7.6875 3.56474 7.69013 4.1659 7.69013C5.98386 7.69145 7.80183 7.67827 9.61979 7.69936C10.0693 7.70464 10.1985 7.55963 10.1946 7.11931C10.1761 4.94671 10.1972 2.77543 10.1774 0.602839C10.1735 0.133516 10.3211 -0.0180907 10.7878 0.00168418C11.5722 0.0346422 12.3593 0.00959507 13.145 0.0109134C13.7422 0.0122317 13.7435 0.0135486 13.7435 0.639751C13.7435 3.6152 13.7422 6.58802 13.7422 9.56083Z" fill="#A9A9A9"/>
<path d="M53.8139 17.3218C52.9913 17.778 52.2556 18.3198 51.433 18.6177C47.8037 19.9334 43.9515 17.8386 42.8072 13.9891C41.8607 10.8014 42.9509 7.4779 45.5744 5.55447C47.8511 3.88548 51.197 4.01995 53.338 5.86692C53.4527 5.96579 53.5687 6.06335 53.8126 6.26901C53.8126 5.86692 53.8244 5.59007 53.8099 5.31454C53.7915 4.98628 53.9128 4.83203 54.2582 4.83731C54.9661 4.84917 55.6754 4.85445 56.3833 4.83467C56.7696 4.82412 56.8922 4.981 56.8882 5.35409C56.875 6.98749 56.8829 8.61957 56.8816 10.253C56.8816 12.9648 56.883 15.6752 56.8803 18.387C56.8803 18.9961 56.8658 19.008 56.2594 19.0093C55.5976 19.0106 54.9345 18.9987 54.2727 19.0132C53.9405 19.0211 53.7928 18.9038 53.8073 18.5597C53.8271 18.1339 53.8139 17.7068 53.8139 17.3218ZM53.8719 11.7493C53.8205 11.3393 53.8113 10.9174 53.7084 10.5193C53.3301 9.05725 52.4455 8.00918 50.9782 7.59787C49.5069 7.18523 48.1807 7.51218 47.0984 8.65648C46.1149 9.69532 45.8605 10.9359 45.9751 12.3188C46.1769 14.7353 48.4852 16.428 50.8358 15.8506C52.6419 15.4076 53.8258 13.79 53.8719 11.7493Z" fill="#A9A9A9"/>
<path d="M82.4952 5.3765C83.3192 4.7002 84.0785 4.21375 85.0159 4.09246C86.963 3.84066 88.5041 4.61188 89.7724 6.01721C90.7466 7.09691 91.1592 8.42446 91.1816 9.84034C91.2265 12.7354 91.1935 15.6317 91.2041 18.5281C91.2054 18.8827 91.0907 19.0251 90.7255 19.0172C89.9095 18.9987 89.0921 19.0027 88.2761 19.0172C87.9939 19.0225 87.8832 18.9091 87.8806 18.6441C87.8792 18.4292 87.8621 18.213 87.8608 17.9981C87.8555 15.5645 87.8766 13.1296 87.8318 10.6972C87.8212 10.0961 87.6789 9.4699 87.464 8.90565C87.0724 7.88132 86.2709 7.42386 85.1292 7.4555C84.0548 7.48582 83.2388 7.96832 82.8828 8.99266C82.664 9.6215 82.5269 10.3097 82.515 10.9741C82.4715 13.438 82.4952 15.9033 82.4926 18.3672C82.4913 19.0053 82.4847 19.0106 81.8479 19.0106C81.1083 19.0119 80.3688 18.9974 79.6292 19.0159C79.2693 19.0238 79.1375 18.8919 79.1427 18.532C79.1585 17.5776 79.1467 16.6218 79.1467 15.6673C79.1467 10.6762 79.1467 5.68631 79.1467 0.695142C79.1467 0.024116 79.1493 0.0227996 79.8032 0.0214813C80.465 0.020163 81.1281 0.020163 81.7899 0.0214813C82.4873 0.0227996 82.4899 0.0228001 82.4899 0.701736C82.4913 2.05697 82.4899 3.41221 82.4899 4.76876C82.4952 4.92959 82.4952 5.09306 82.4952 5.3765Z" fill="#A9A9A9"/>
<path d="M78.3754 9.44879C77.2021 9.44879 76.0816 9.4567 74.9623 9.43824C74.8397 9.43561 74.671 9.31564 74.605 9.20227C73.7969 7.82989 72.5537 7.29993 71.0429 7.50295C69.3779 7.72574 68.3483 8.79227 67.8724 10.3624C67.2501 12.415 68.1505 14.5995 69.9553 15.5526C71.5479 16.395 73.5003 15.873 74.4745 14.3635C74.5747 14.2079 74.7909 14.0286 74.9544 14.0273C76.0156 14.0115 77.0782 14.0418 78.1408 14.0603C78.1816 14.0616 78.2212 14.0959 78.2594 14.113C77.8376 16.2935 75.2668 19.1741 71.1352 19.0159C67.6562 18.8827 64.5963 15.8901 64.3656 12.2713C64.1178 8.36908 66.7716 4.99682 70.4761 4.47081C74.4297 3.90788 77.6332 6.4417 78.3754 9.44879Z" fill="#A9A9A9"/>
<path d="M59.1331 13.6371C59.1331 11.806 59.1278 9.9748 59.1384 8.14497C59.1397 7.89185 59.0448 7.81539 58.818 7.81803C58.5254 7.82067 58.2274 7.84835 57.944 7.79693C57.8161 7.7732 57.6263 7.58864 57.621 7.46999C57.5907 6.71723 57.6078 5.96183 57.6039 5.20775C57.6025 4.952 57.7291 4.84521 57.9717 4.84521C58.0336 4.84521 58.0943 4.84258 58.1562 4.84258C59.1648 4.82544 59.1647 4.82544 59.1647 3.83538C59.1647 2.74249 59.1766 1.6496 59.1582 0.556712C59.1516 0.165171 59.2689 0.000382612 59.6828 0.0148842C60.4369 0.0399323 61.191 0.0359746 61.9451 0.0161997C62.3221 0.00565316 62.4632 0.136169 62.4579 0.521119C62.4408 1.70629 62.4513 2.89146 62.4526 4.07663C62.4526 4.84258 62.4526 4.84258 63.2423 4.84389C63.5047 4.84389 63.7657 4.8518 64.0267 4.84521C64.3154 4.8373 64.4539 4.97177 64.4525 5.25917C64.4512 5.98293 64.4525 6.70668 64.4499 7.42912C64.4486 7.69279 64.3181 7.82199 64.0478 7.81803C63.7248 7.81276 63.4018 7.81803 63.0775 7.82066C62.4645 7.82462 62.4513 7.83649 62.4513 8.43764C62.4513 11.6543 62.4526 14.8724 62.45 18.0891C62.4487 19.1042 62.5462 19.0093 61.539 19.0145C60.9234 19.0172 60.3064 18.9961 59.6921 19.0211C59.2887 19.0383 59.1529 18.8933 59.1568 18.4898C59.174 16.8736 59.1634 15.2573 59.1634 13.6411C59.1555 13.6371 59.1437 13.6371 59.1331 13.6371Z" fill="#A9A9A9"/>
<path d="M19.7497 11.8363C19.7497 14.0221 19.7497 16.2078 19.7483 18.3949C19.7483 19 19.7431 19.004 19.1221 19.0053C18.3364 19.0066 17.552 18.9948 16.7663 19.0093C16.4143 19.0159 16.2746 18.8919 16.2759 18.5268C16.2838 14.0774 16.2838 9.6281 16.2772 5.18008C16.2772 4.83864 16.4077 4.71999 16.7413 4.72526C17.5718 4.73844 18.405 4.75031 19.2355 4.71999C19.6402 4.70549 19.7642 4.82018 19.7602 5.23281C19.7391 7.43309 19.7497 9.63469 19.7497 11.8363Z" fill="#A9A9A9"/>
<path d="M18.002 3.20522C17.5709 3.20522 17.1412 3.19863 16.7114 3.20786C16.4332 3.21445 16.2777 3.12612 16.2803 2.81632C16.2895 2.00159 16.2856 1.18687 16.2829 0.372147C16.2816 0.121666 16.3924 0.0109257 16.6442 0.0122441C17.5512 0.016199 18.4582 0.0162005 19.3652 0.00960887C19.642 0.00697222 19.7501 0.129574 19.7475 0.398511C19.7409 1.19741 19.7396 1.99764 19.7488 2.79654C19.7514 3.08789 19.6368 3.21577 19.3401 3.20786C18.8945 3.19599 18.4476 3.20522 18.002 3.20522Z" fill="#A9A9A9"/>
</svg>
