<svg width="148" height="51" viewBox="0 0 148 51" fill="none" xmlns="http://www.w3.org/2000/svg">
<path d="M51.8693 12.0102C50.9855 11.2854 50.1234 10.5289 49.2118 9.83773C45.28 6.86325 40.9044 4.82944 36.0531 3.9165C27.2205 2.25301 19.2282 3.95412 12.7855 10.4833C6.47173 16.8818 5.0865 26.2231 10.8315 33.9345C14.0578 38.2656 18.5464 40.7588 23.8615 41.7411C28.2193 42.5451 32.4661 42.0856 36.6218 40.5984C37.6603 40.2261 38.667 40.5865 39.2021 41.6341C40.2781 43.7452 40.508 45.9909 39.9115 48.2722C39.5191 49.7733 38.237 50.2407 36.8775 50.4249C30.8213 51.2388 24.783 51.0784 18.9507 49.1951C10.4094 46.4345 4.03023 41.1192 1.1369 32.4156C-1.01923 25.932 -0.0283599 19.6404 3.42977 13.7568C6.13285 9.16243 9.97742 5.74634 14.6801 3.33626C18.1065 1.58365 21.7648 0.490503 25.6371 0.134041C33.4471 -0.584823 40.4109 1.60544 46.592 6.27905C48.4132 7.65737 49.9094 9.46938 51.5364 11.0972C51.7544 11.3151 51.8753 11.628 52.0417 11.8973C51.9862 11.9329 51.9288 11.9725 51.8693 12.0102Z" fill="white"/>
<path d="M42.3314 24.7418C40.8848 25.431 39.4777 26.2211 37.9835 26.7895C35.3577 27.7896 35.2249 28.1163 36.1821 30.766C36.7291 32.279 37.6843 33.3939 38.8594 34.3881C39.014 34.5188 39.3053 34.6118 39.4896 34.5604C40.6172 34.2514 41.727 33.8712 42.8566 33.5682C43.459 33.4058 44.1982 33.1127 44.6738 33.3246C45.0504 33.4929 45.2188 34.3306 45.304 34.897C45.4427 35.8317 45.2743 36.6872 44.1764 37.0219C44.0258 37.0675 43.9247 37.2794 43.8514 37.4794C46.7091 36.5922 49.317 35.2456 51.5247 33.2375C52.688 32.18 53.7026 30.9561 54.747 29.7739C55.2682 29.1837 55.8072 28.855 56.5385 29.3362C57.2361 29.7956 57.2797 30.3759 56.6574 31.1977C53.5342 35.3168 49.5093 38.1745 44.5847 39.7548C44.2121 39.8756 43.8118 39.9211 43.4194 39.9707C42.6862 40.0637 42.274 39.7885 42.3294 38.9884C42.4325 37.5071 42.4523 37.3328 40.5439 37.4378C40.2248 37.4556 39.8681 37.5368 39.6046 37.7051C38.4769 38.4319 37.3692 38.4814 36.3307 37.6041C36.0018 37.3249 35.6708 36.8754 35.6252 36.4714C35.544 35.7545 35.324 35.2218 34.8642 34.6316C34.1865 33.7623 33.7406 32.7048 33.2472 31.7007C32.8508 30.8967 32.393 30.7502 31.5191 31.0908C29.0597 32.0493 26.5608 32.9068 24.0559 33.7444C23.7586 33.8435 23.1542 33.6949 23.0115 33.4652C22.6488 32.881 23.2671 32.7721 23.6397 32.6374C26.4339 31.6294 29.2381 30.6512 32.0304 29.6372C32.827 29.3481 33.2967 29.6828 33.6494 30.3323C34.1865 31.3165 34.7077 32.3087 35.2428 33.2949C35.3141 33.4256 35.433 33.5326 35.6966 33.8593C35.6371 33.4514 35.655 33.285 35.5896 33.1602C35.0049 32.0176 34.4243 30.873 33.804 29.7501C33.3938 29.0075 32.7834 28.8253 31.957 29.1362C30.7521 29.5877 29.5373 30.0452 28.2869 30.3323C27.5219 30.5066 26.6262 30.5581 25.8929 30.3303C24.26 29.8234 22.6508 29.1897 21.117 28.4351C20.5442 28.1539 20.027 27.4569 19.807 26.835C19.484 25.9181 18.9133 25.5557 18.0552 25.5617C17.4052 25.5656 16.7552 25.6944 16.1111 25.8033C15.8554 25.8468 15.6256 26.0112 15.3719 26.0825C14.7179 26.2667 13.8559 26.6806 13.5745 25.7874C13.305 24.924 14.3077 24.9438 14.8309 24.7557C23.4316 21.6564 32.0442 18.5909 40.645 15.4916C43.249 14.5529 43.2391 14.5173 44.2815 17.1016C44.5529 17.775 44.8046 18.4562 45.0722 19.1295C45.5081 20.2266 45.2604 21.1871 44.5252 22.0723C43.9188 22.8031 43.3441 23.5595 42.7555 24.3061C42.6188 24.4507 42.4741 24.5953 42.3314 24.7418ZM26.0772 23.8487C26.1189 23.9695 26.1624 24.0923 26.2041 24.2131C31.1961 22.4129 36.188 20.6108 41.18 18.8107C41.1424 18.7097 41.1067 18.6067 41.0691 18.5057C36.0731 20.286 31.0752 22.0683 26.0772 23.8487Z" fill="white"/>
<path d="M131.127 24.621C131.127 24.1398 131.127 23.6605 131.127 23.1793C131.127 21.7931 131.127 20.4068 131.129 19.0226C131.131 17.2284 131.648 16.8006 133.406 17.2482C133.685 17.3195 134.062 17.767 134.064 18.0443C134.109 21.5079 134.113 24.9735 134.056 28.4371C134.052 28.7282 133.556 29.1897 133.219 29.2629C131.792 29.5758 130.744 29.0075 129.811 27.8569C128.116 25.7656 126.275 23.7932 124.28 21.5257C124.244 22.199 124.208 22.5674 124.208 22.9377C124.202 24.6864 124.183 26.435 124.212 28.1836C124.226 28.9698 123.959 29.3758 123.126 29.3085C122.797 29.2808 122.466 29.2966 122.135 29.2986C121.515 29.3025 121.23 28.9778 121.23 28.3777C121.228 24.9458 121.228 21.5158 121.232 18.0839C121.232 17.464 121.583 17.2521 122.171 17.1848C123.533 17.0244 124.518 17.4581 125.415 18.5631C127.131 20.6801 129.014 22.6605 130.829 24.6982C130.93 24.6705 131.028 24.6467 131.127 24.621Z" fill="white"/>
<path d="M81.1808 23.2229C81.1808 21.5732 81.1927 19.9236 81.1749 18.274C81.1669 17.5333 81.4721 17.1828 82.2331 17.1868C85.4039 17.1987 88.5727 17.2046 91.7435 17.1848C92.667 17.1789 92.7165 17.7373 92.7125 18.4265C92.7086 19.1335 92.6947 19.781 91.7217 19.7771C89.6091 19.7692 87.4946 19.7969 85.3821 19.7711C84.6033 19.7612 84.1415 19.9137 84.1415 20.8484C84.1415 21.7535 84.5379 21.9772 85.3484 21.9574C86.8664 21.9218 88.3864 21.9753 89.9044 21.9396C90.8398 21.9178 91.1053 22.3931 91.1053 23.2248C91.1053 24.0368 90.8913 24.5616 89.9381 24.5418C88.3547 24.5121 86.7634 24.6151 85.1859 24.5101C84.0583 24.4348 84.0524 25.1002 84.0028 25.8488C83.9394 26.7914 84.6112 26.7004 85.2077 26.7004C87.2885 26.7043 89.3674 26.6944 91.4482 26.7083C92.5996 26.7162 92.7799 26.9855 92.7799 28.3698C92.7779 29.3085 92.1576 29.3025 91.4957 29.3025C88.4914 29.2986 85.4851 29.3065 82.4808 29.2986C81.3136 29.2946 81.1848 29.1599 81.1769 27.9717C81.167 26.3875 81.1749 24.8032 81.1749 23.2209C81.1769 23.2229 81.1788 23.2229 81.1808 23.2229Z" fill="white"/>
<path d="M147.987 23.2902C147.987 24.213 148.015 25.1359 147.981 26.0567C147.912 27.9876 146.729 29.2253 144.819 29.2827C142.942 29.3382 141.059 29.3421 139.183 29.2807C137.361 29.2213 136.252 28.35 136.105 26.5677C135.929 24.417 135.917 22.2307 136.081 20.0781C136.222 18.2502 137.308 17.3313 139.169 17.2363C141.109 17.1373 143.059 17.1472 145.001 17.2264C146.735 17.2957 147.896 18.5611 147.977 20.3276C148.023 21.3138 147.985 22.304 147.985 23.2922C147.985 23.2902 147.987 23.2902 147.987 23.2902ZM145.183 23.3258C145.183 22.502 145.187 21.6762 145.181 20.8524C145.177 20.1731 144.832 19.8008 144.147 19.7969C142.728 19.7889 141.307 19.787 139.888 19.7988C139.192 19.8048 138.879 20.2127 138.879 20.8801C138.877 22.4644 138.875 24.0467 138.881 25.631C138.883 26.3756 139.305 26.6944 140.017 26.6944C141.37 26.6944 142.724 26.6944 144.077 26.6944C144.803 26.6944 145.181 26.334 145.183 25.6032C145.185 24.8448 145.183 24.0863 145.183 23.3258Z" fill="white"/>
<path d="M119.264 23.213C119.266 24.8943 119.234 26.5776 119.278 28.2569C119.304 29.2095 118.779 29.3362 118.022 29.3085C117.259 29.2808 116.424 29.4313 116.456 28.2351C116.48 27.3123 116.438 26.3895 116.46 25.4666C116.476 24.7854 116.165 24.526 115.503 24.5339C113.985 24.5537 112.467 24.5636 110.951 24.5299C110.154 24.5121 109.908 24.8745 109.936 25.6112C109.97 26.5004 109.924 27.3915 109.948 28.2807C109.966 28.9738 109.704 29.3461 108.969 29.3045C108.64 29.2867 108.309 29.2907 107.98 29.3025C107.271 29.3283 106.958 28.9837 106.959 28.2866C106.965 24.924 106.965 21.5614 106.959 18.1988C106.958 17.4957 107.283 17.163 107.986 17.1908C108.25 17.2007 108.515 17.2086 108.777 17.1848C109.613 17.1096 109.999 17.4442 109.954 18.3176C109.91 19.1731 109.972 20.0326 109.938 20.8881C109.908 21.6366 110.186 21.9713 110.969 21.9535C112.485 21.9198 114.005 21.9297 115.521 21.9495C116.196 21.9575 116.476 21.6683 116.462 21.0009C116.442 20.0444 116.456 19.0879 116.47 18.1334C116.488 16.9789 117.362 17.2324 118.051 17.1927C118.751 17.1512 119.29 17.2601 119.272 18.173C119.238 19.8504 119.262 21.5317 119.264 23.213Z" fill="white"/>
<path d="M100.709 29.2926C99.6194 29.2926 98.5274 29.3262 97.4394 29.2847C95.5925 29.2134 94.5738 28.4569 94.4371 26.6548C94.2706 24.4625 94.2389 22.2346 94.449 20.0503C94.6353 18.1195 95.6162 17.3273 97.5544 17.2343C99.762 17.1293 101.978 17.1986 104.191 17.1947C105.083 17.1927 105.15 17.8145 105.168 18.4858C105.188 19.2641 104.92 19.7711 104.051 19.7711C102.332 19.7711 100.616 19.7731 98.898 19.781C97.4137 19.7889 97.2591 19.9434 97.2532 21.4365C97.2492 22.7891 97.265 24.1437 97.2512 25.4963C97.2432 26.324 97.6297 26.7043 98.4561 26.7003C100.273 26.6904 102.089 26.73 103.906 26.6904C104.841 26.6686 105.226 27.0231 105.19 27.9677C105.146 29.1203 105.029 29.2886 103.88 29.3005C102.824 29.3104 101.766 29.3025 100.709 29.3025C100.709 29.3005 100.709 29.2965 100.709 29.2926Z" fill="white"/>
<path d="M73.9715 17.1888C75.6203 17.1888 77.2711 17.2204 78.9199 17.1749C79.8236 17.1511 80.0436 17.5749 80.0356 18.3809C80.0277 19.1988 79.9465 19.8385 78.8882 19.783C78.1649 19.7454 77.4336 19.8206 76.7123 19.7672C75.7808 19.6979 75.4182 20.0405 75.44 21.0029C75.4915 23.3417 75.4618 25.6825 75.4539 28.0232C75.4499 29.2193 75.3647 29.2926 74.142 29.3005C72.6834 29.3104 72.4912 29.1817 72.4813 28.0034C72.4614 25.6627 72.4456 23.3219 72.4852 20.9831C72.5011 20.0959 72.2078 19.7058 71.2902 19.7672C70.5015 19.8187 69.7068 19.7592 68.9161 19.7771C67.8678 19.8008 67.9153 19.0859 67.8955 18.3611C67.8757 17.6244 68.0461 17.1591 68.926 17.1789C70.6065 17.2145 72.289 17.1888 73.9715 17.1888Z" fill="white"/>
<path d="M42.6068 47.7257C42.8664 47.6801 43.128 47.6484 43.3856 47.589C47.464 46.6345 51.3918 45.2384 54.8936 42.9313C57.3331 41.3252 59.5665 39.4043 61.8693 37.5982C62.3905 37.1883 62.5807 36.614 62.0754 36.0436C61.5621 35.4634 60.9676 35.5584 60.3909 35.9664C60.2046 36.0991 60.0401 36.2674 59.8756 36.4278C57.3608 38.8517 54.5408 40.84 51.4037 42.3748C48.5163 43.7887 45.4982 44.8324 42.3551 45.5196C40.5121 45.7295 40.7638 47.9356 42.6068 47.7257Z" fill="white"/>
<path d="M42.2302 44.1511C42.4581 44.1135 42.688 44.0878 42.91 44.0343C49.4655 42.45 55.0957 39.2795 59.6536 34.2732C60.2977 33.5662 60.3532 32.881 59.7943 32.374C59.2078 31.8433 58.4983 31.9998 57.8562 32.7642C55.3295 35.7703 52.2221 38.0398 48.6451 39.5944C46.4791 40.535 44.1783 41.1687 41.931 41.9193C40.2049 42.147 40.5041 44.3828 42.2302 44.1511Z" fill="white"/>
<path d="M14.6899 26.942C16.0236 25.8369 17.3673 25.7122 18.7466 26.3657C19.0834 26.5261 19.3886 26.9558 19.5095 27.3281C19.7909 28.1896 20.33 28.6946 21.1643 29.0015C22.3989 29.457 23.6097 29.9758 24.8265 30.4749C25.207 30.6313 25.5816 30.8076 26.1384 31.0551C25.7718 31.273 25.6053 31.4096 25.4151 31.4789C23.8674 32.0354 22.3117 32.5642 20.7679 33.1305C19.3946 33.6335 18.7485 33.4276 18.1183 32.1384C17.613 31.1046 17.1711 30.0412 16.7073 28.9877C16.307 28.0747 16.1644 26.934 14.6899 26.942Z" fill="white"/>
<path d="M63.5535 23.1417C63.5535 21.5277 63.5773 19.9117 63.5436 18.2977C63.5277 17.5036 63.8111 17.1135 64.6355 17.1868C64.8971 17.2105 65.1647 17.2125 65.4262 17.1868C66.3061 17.1056 66.5657 17.5333 66.5578 18.3611C66.5301 21.5891 66.5241 24.819 66.5638 28.049C66.5756 28.9817 66.2705 29.4194 65.3153 29.3025C65.2499 29.2946 65.1845 29.3025 65.1171 29.3025C63.5594 29.3065 63.5535 29.3005 63.5515 27.7876C63.5495 26.2389 63.5515 24.6903 63.5515 23.1417H63.5535Z" fill="white"/>
<path d="M31.5802 8.07723C28.457 8.13466 25.9025 8.88719 23.7622 10.8616C23.4709 11.1309 22.6663 11.2695 22.4087 11.0695C21.8201 10.6121 22.3374 10.1229 22.7317 9.78032C26.2592 6.69495 30.296 5.79785 34.8144 7.0019C36.6712 7.49698 38.2844 8.43171 39.7053 9.70507C40.0818 10.0417 40.6466 10.4536 40.1492 11.0161C39.6835 11.5408 39.2019 11.1388 38.7739 10.7923C36.594 9.03175 34.1089 8.10495 31.5802 8.07723Z" fill="white"/>
<path d="M37.0554 14.5014C36.5996 14.6975 36.2706 14.9173 35.9179 14.9609C35.7098 14.9866 35.4541 14.7509 35.2421 14.6024C32.4914 12.6736 29.6615 12.7211 27.0496 14.7608C26.6057 15.1074 26.0865 15.2936 25.7813 14.7648C25.6327 14.5093 25.8011 13.838 26.0548 13.6182C28.8966 11.1487 33.3971 10.7665 36.4292 13.5845C36.6333 13.7766 36.7542 14.0578 37.0554 14.5014Z" fill="white"/>
<path d="M42.3311 24.7418C42.4758 24.5952 42.6204 24.4507 42.7631 24.3041C43.865 24.2645 43.5578 24.9854 43.322 25.4923C42.7651 26.6865 41.7604 27.4251 40.5396 27.8668C39.3625 28.2925 38.1833 28.7143 36.9844 29.0708C36.7228 29.148 36.378 28.9421 36.0708 28.8648C36.2412 28.5579 36.3403 28.0806 36.594 27.9717C37.7434 27.4845 38.9364 27.0964 40.1175 26.6805C41.1183 26.328 41.9645 25.8112 42.3311 24.7418Z" fill="white"/>
<path d="M17.2165 31.9522C16.7904 31.063 16.1721 29.3758 15.7262 28.4985C15.5994 27.6925 14.2974 27.8984 14.4242 28.7044C14.876 30.0114 15.3655 31.3106 15.9501 32.5621C16.5169 33.7385 17.7833 33.1265 17.2165 31.9522Z" fill="white"/>
<path d="M12.9304 30.0848C13.3506 31.0828 13.7687 32.0849 14.274 33.0394C14.7516 34.2336 16.0318 33.7207 15.5542 32.5265C15.2491 31.5621 14.8269 30.6294 14.391 29.7105C13.7132 28.2014 12.3141 28.4708 12.9304 30.0848Z" fill="white"/>
</svg>
